<svg id="Layer_1" data-name="Layer 1" xmlns="http://www.w3.org/2000/svg" viewBox="0 0 448 512"><defs><style>.cls-1{fill:#3778c2;}</style></defs><path class="cls-1" d="M160,400a16,16,0,0,1-32,0V192a16,16,0,0,1,32,0Zm80,0a16,16,0,0,1-32,0V192a16,16,0,0,1,32,0Zm80,0a16,16,0,0,1-32,0V192a16,16,0,0,1,32,0ZM317.5,24.94,354.2,80H424a24,24,0,0,1,0,48h-8V432a80,80,0,0,1-80,80H112a80,80,0,0,1-80-80V128H24a24,24,0,0,1,0-48H93.82L130.5,24.94A56.06,56.06,0,0,1,177.1,0h93.8a56.06,56.06,0,0,1,46.6,24.94ZM151.5,80h145l-19-28.44A8,8,0,0,0,270.9,48H177.1c-2.6,0-6,1.34-6.6,3.56ZM80,432a32,32,0,0,0,32,32H336a32,32,0,0,0,32-32V128H80Z"/></svg>